<?xml version="1.0" standalone="no"?>
<!DOCTYPE svg PUBLIC "-//W3C//DTD SVG 20010904//EN"
 "http://www.w3.org/TR/2001/REC-SVG-20010904/DTD/svg10.dtd">
<svg version="1.0" xmlns="http://www.w3.org/2000/svg"
 width="1240.000000pt" height="1240.000000pt" viewBox="0 0 1240.000000 1240.000000"
 preserveAspectRatio="xMidYMid meet">
<metadata>
Created by potrace 1.14, written by Peter Selinger 2001-2017
</metadata>
<g transform="translate(0.000000,1240.000000) scale(0.100000,-0.100000)"
fill="#000000" stroke="none">
<path d="M9209 9566 c-2 -2 -47 -7 -99 -10 -52 -3 -106 -8 -120 -10 -14 -3
-47 -8 -75 -11 -73 -10 -89 -12 -195 -30 -19 -4 -53 -11 -75 -16 -22 -5 -51
-12 -63 -15 -13 -2 -49 -12 -80 -20 -32 -8 -65 -17 -75 -19 -42 -9 -355 -118
-406 -141 -421 -192 -652 -349 -960 -655 -116 -116 -282 -318 -343 -417 -12
-21 -25 -39 -28 -42 -26 -21 -245 -436 -254 -482 -2 -7 -9 -26 -16 -43 -23
-56 -62 -160 -70 -190 -5 -16 -22 -77 -38 -135 -17 -58 -38 -139 -46 -182 -9
-42 -20 -87 -25 -101 -5 -14 -8 -27 -5 -30 3 -2 0 -24 -5 -48 -5 -24 -12 -66
-16 -94 -3 -27 -8 -63 -11 -80 -35 -242 -40 -810 -9 -1080 2 -16 6 -55 10 -85
3 -30 10 -80 15 -110 5 -30 11 -71 14 -90 5 -31 28 -150 40 -205 30 -140 107
-388 157 -510 7 -16 13 -32 14 -35 5 -14 26 -62 56 -125 18 -38 33 -72 33 -75
1 -3 6 -12 11 -20 5 -8 21 -37 36 -65 87 -166 191 -319 344 -505 61 -75 395
-396 395 -381 0 3 4 1 8 -4 15 -21 166 -129 281 -200 66 -41 181 -104 258
-140 76 -36 146 -70 155 -75 10 -6 23 -10 29 -10 6 0 25 -7 42 -15 29 -13 229
-81 267 -91 8 -2 60 -15 115 -28 133 -34 182 -45 230 -52 22 -3 49 -7 60 -9
76 -13 158 -25 203 -30 28 -3 76 -7 105 -11 166 -17 555 -23 712 -10 39 3 99
8 135 10 36 3 81 7 100 10 19 3 55 8 80 11 48 6 73 10 160 26 30 6 66 12 80
14 52 8 306 73 370 95 36 12 54 17 63 19 4 0 21 8 37 16 17 9 30 13 30 11 0
-3 21 4 48 15 26 11 56 24 67 28 11 5 44 19 74 32 30 13 57 24 60 25 16 1 253
126 336 176 17 10 45 25 63 35 17 9 32 20 32 25 0 4 6 8 13 8 7 0 22 7 32 15
11 8 52 37 90 64 39 28 75 55 82 61 7 5 17 10 23 10 5 0 10 4 10 8 0 5 21 23
46 42 45 32 296 277 344 335 114 138 168 233 164 290 -4 72 -14 179 -18 210
-22 162 -25 177 -67 355 -17 74 -35 144 -39 155 -4 11 -26 79 -49 150 -49 157
-80 247 -92 260 -5 5 -9 14 -9 21 0 6 -14 42 -31 80 -17 38 -30 69 -29 69 1 0
-12 24 -29 53 -17 29 -31 55 -31 57 0 22 -136 215 -210 299 l-25 28 -165 -6
c-157 -6 -236 -11 -325 -21 -22 -3 -65 -7 -95 -10 -30 -3 -66 -7 -80 -10 -14
-3 -43 -7 -65 -11 -41 -5 -54 -8 -115 -18 -19 -3 -47 -8 -63 -10 -15 -3 -35
-7 -45 -10 -9 -3 -35 -7 -57 -11 -22 -3 -58 -10 -80 -16 -22 -6 -49 -13 -60
-15 -43 -7 -153 -34 -220 -54 -38 -12 -77 -23 -85 -25 -35 -8 -265 -87 -308
-106 -116 -51 -208 -95 -213 -102 -3 -5 -10 -9 -15 -9 -17 -1 -54 -21 -54 -30
0 -4 -6 -8 -13 -8 -7 0 -29 -11 -50 -25 l-37 -26 0 -228 0 -229 -31 -11 c-48
-17 -81 -13 -111 12 -60 50 -109 188 -134 377 -12 96 -15 117 -19 140 -5 23
-8 67 -20 285 -3 44 -7 157 -9 250 -3 94 -5 175 -6 180 -2 6 -2 15 -1 20 0 6
3 174 5 375 3 201 7 381 10 400 3 19 8 53 10 75 7 54 33 146 45 158 6 6 11 17
11 25 0 21 49 61 90 73 19 6 55 9 79 7 l45 -3 -4 -70 c-1 -38 -3 -141 -4 -227
0 -87 -5 -158 -9 -158 -5 0 -5 -5 -1 -11 3 -6 6 -50 5 -99 -2 -87 -1 -88 35
-136 57 -75 122 -128 269 -220 157 -98 426 -206 590 -239 11 -2 32 -6 48 -9
93 -20 197 -29 317 -30 99 0 281 10 315 17 19 4 129 18 140 18 2 0 19 5 37 10
18 5 48 12 66 15 19 3 80 21 135 40 56 20 112 38 125 41 12 3 22 9 22 14 0 5
6 9 14 9 19 0 113 51 201 109 318 210 480 567 479 1051 -2 407 -120 752 -374
1084 -44 58 -246 267 -305 316 -17 14 -53 44 -81 68 -29 23 -57 42 -63 42 -6
0 -11 4 -11 8 0 19 -353 235 -406 248 -13 3 -24 10 -24 14 0 4 -10 11 -22 15
-13 4 -25 8 -28 10 -14 6 -89 38 -115 50 -45 19 -135 52 -180 66 -22 6 -49 15
-60 20 -29 11 -66 22 -110 32 -11 3 -47 12 -80 21 -79 20 -201 46 -245 52 -19
2 -46 6 -60 9 -42 9 -73 14 -125 20 -27 3 -68 8 -90 11 -22 3 -62 7 -90 10
-64 6 -611 15 -616 10z"/>
<path d="M2867 9544 c-1 -1 -60 -5 -132 -8 -167 -8 -296 -19 -365 -31 -14 -3
-45 -7 -70 -11 -25 -3 -56 -8 -70 -10 -14 -3 -36 -7 -50 -9 -208 -29 -551
-133 -800 -243 -105 -46 -341 -172 -371 -198 -8 -8 -19 -14 -22 -14 -10 0
-151 -102 -155 -112 -2 -4 -8 -8 -14 -8 -16 0 -123 -94 -238 -209 -195 -195
-332 -404 -430 -654 -17 -43 -32 -86 -33 -95 -1 -9 -5 -21 -9 -27 -10 -17 -53
-194 -64 -265 -3 -19 -7 -46 -10 -60 -14 -81 -19 -177 -18 -350 0 -172 5 -225
29 -355 12 -66 48 -193 72 -255 4 -8 7 -17 8 -20 34 -107 172 -346 257 -444
68 -79 182 -183 244 -223 10 -7 35 -23 54 -36 67 -44 83 -48 127 -31 33 13
213 63 248 70 74 13 161 24 230 31 94 8 330 8 398 -1 26 -3 68 -8 95 -11 43
-5 130 -17 142 -20 10 -3 66 -16 110 -27 96 -22 234 -74 331 -123 144 -74 229
-136 350 -255 106 -104 158 -176 224 -309 39 -77 50 -107 71 -201 4 -14 6 -51
7 -82 0 -47 -4 -63 -28 -93 -27 -36 -73 -63 -116 -68 -18 -2 -25 8 -44 63 -46
133 -194 406 -226 418 -5 2 -9 8 -9 14 0 20 -176 185 -250 234 -79 52 -230
129 -277 140 -15 4 -32 9 -38 13 -5 3 -14 7 -20 8 -222 56 -231 58 -360 70
-38 3 -89 7 -112 7 -24 1 -43 4 -43 7 0 4 -16 3 -35 -1 -20 -4 -38 -4 -41 1
-3 5 -10 7 -15 4 -5 -4 -46 -8 -92 -10 -90 -4 -150 -11 -212 -26 -22 -5 -51
-12 -65 -15 -52 -11 -178 -58 -245 -92 -90 -44 -163 -92 -250 -163 -64 -52
-185 -172 -185 -183 0 -3 -13 -19 -29 -36 -16 -18 -35 -44 -42 -58 -8 -15 -17
-29 -21 -32 -27 -21 -142 -298 -153 -370 -2 -14 -9 -50 -14 -80 -13 -70 -13
-66 -14 -250 0 -150 5 -228 17 -280 3 -14 8 -36 10 -50 3 -14 8 -36 11 -50 4
-14 8 -38 11 -53 2 -16 7 -34 11 -40 4 -7 8 -14 8 -17 2 -11 49 -148 63 -180
9 -19 16 -37 17 -40 9 -36 177 -338 194 -350 4 -3 10 -13 14 -22 3 -10 65 -46
139 -82 239 -115 253 -121 468 -197 47 -17 92 -33 100 -36 8 -4 19 -5 24 -4 4
1 13 -3 20 -8 6 -5 25 -12 41 -15 16 -3 52 -12 80 -20 60 -18 134 -38 155 -42
8 -1 26 -5 40 -8 74 -17 211 -43 255 -50 17 -2 49 -7 73 -11 50 -8 67 -10 147
-20 33 -3 70 -8 83 -10 12 -2 59 -7 105 -10 45 -4 98 -9 117 -11 225 -24 1016
-24 1195 1 17 2 57 7 90 10 33 4 69 9 80 11 11 3 40 7 65 9 25 3 59 9 75 12
17 4 34 6 39 4 5 -1 16 1 25 5 9 4 25 8 36 9 11 1 31 5 45 10 14 4 36 9 50 11
145 17 667 201 780 275 8 5 31 17 50 25 19 9 42 22 50 29 8 6 35 23 60 36 51
28 224 145 290 198 83 67 104 86 205 186 119 119 165 171 165 185 0 5 4 10 8
10 5 0 33 35 62 78 30 42 58 79 62 80 4 2 8 10 8 17 0 8 6 20 13 27 46 47 202
419 220 525 3 15 13 61 21 102 27 125 38 242 39 416 1 119 -9 307 -18 355 -2
14 -7 41 -9 60 -14 98 -17 118 -27 155 -6 22 -13 51 -15 65 -3 14 -8 34 -11
45 -4 11 -8 25 -9 30 -8 46 -76 221 -121 315 -51 106 -140 249 -192 310 -12
14 -38 45 -59 69 -61 72 -158 165 -232 222 -24 19 -52 41 -62 50 -10 9 -31 22
-46 30 -15 8 -29 17 -32 20 -8 9 -149 90 -200 115 -134 65 -279 122 -395 154
-88 24 -142 38 -180 45 -22 5 -46 9 -53 11 -15 3 -125 20 -187 29 -268 40
-673 38 -870 -5 -23 -5 -44 -5 -49 0 -5 5 -9 34 -8 64 1 111 73 157 282 183
72 9 500 9 566 0 28 -4 71 -9 95 -12 24 -3 55 -8 69 -10 25 -5 34 -7 130 -26
30 -6 98 -22 150 -36 52 -14 102 -26 110 -28 8 -2 15 -4 15 -5 0 -1 7 -3 15
-5 26 -5 214 -66 235 -75 11 -5 52 -21 90 -36 83 -31 224 -100 246 -120 25
-22 35 -17 82 39 124 148 227 369 267 572 6 33 13 70 16 83 12 63 15 83 22
152 9 96 9 385 -1 470 -4 36 -10 87 -13 115 -3 27 -10 58 -15 67 -5 10 -8 18
-5 18 3 0 0 15 -5 33 -5 17 -12 48 -15 67 -3 19 -9 40 -12 45 -4 6 -7 12 -7
15 0 3 -6 26 -14 51 -11 39 -23 54 -76 93 -34 25 -68 46 -74 46 -6 0 -11 3
-11 8 0 16 -317 192 -346 192 -8 0 -14 5 -14 10 0 6 -7 10 -15 10 -8 0 -23 4
-33 10 -17 9 -71 32 -147 62 -22 9 -62 25 -90 36 -27 11 -111 39 -185 62 -74
23 -147 45 -162 50 -16 5 -28 7 -28 4 0 -3 -8 -1 -17 4 -18 10 -285 66 -358
76 -22 3 -49 7 -61 10 -12 2 -45 7 -75 11 -30 3 -70 8 -89 10 -33 5 -94 10
-205 20 -138 12 -679 27 -688 19z"/>
</g>
</svg>
